<?xml version="1.0" encoding="utf-8"?>
<!-- Generator: Adobe Illustrator 24.0.0, SVG Export Plug-In . SVG Version: 6.00 Build 0)  -->
<svg version="1.1"
	 id="Capa_1" inkscape:version="0.92.2 (5c3e80d, 2017-08-06)" sodipodi:docname="movistar-logo.svg" xmlns:cc="http://creativecommons.org/ns#" xmlns:dc="http://purl.org/dc/elements/1.1/" xmlns:inkscape="http://www.inkscape.org/namespaces/inkscape" xmlns:rdf="http://www.w3.org/1999/02/22-rdf-syntax-ns#" xmlns:sodipodi="http://sodipodi.sourceforge.net/DTD/sodipodi-0.dtd" xmlns:svg="http://www.w3.org/2000/svg"
	 xmlns="http://www.w3.org/2000/svg" xmlns:xlink="http://www.w3.org/1999/xlink" x="0px" y="0px" viewBox="0 0 153.7 96.6"
	 style="enable-background:new 0 0 153.7 96.6;" xml:space="preserve">
<style type="text/css">
	.st0{fill:#00A9E0;}
</style>
<sodipodi:namedview  bordercolor="#666666" borderopacity="1" fit-margin-bottom="0" fit-margin-left="0" fit-margin-right="0" fit-margin-top="0" gridtolerance="10" guidetolerance="10" id="namedview8" inkscape:current-layer="Capa_1" inkscape:cx="184.03594" inkscape:cy="-23.909754" inkscape:pageopacity="0" inkscape:pageshadow="2" inkscape:window-height="837" inkscape:window-maximized="1" inkscape:window-width="1600" inkscape:window-x="-8" inkscape:window-y="-8" inkscape:zoom="2.0165395" objecttolerance="10" pagecolor="#ffffff" showgrid="false">
	</sodipodi:namedview>
<g id="Symbol_2_1" transform="translate(-33.994381,0.01586314)">
	<path id="M" inkscape:connector-curvature="0" class="st0" d="M63.1,10.5c-7.1,0-20.1,3.2-26.5,24.4c-3,9.9-3.4,20.2-1.5,30.2
		c1.9,8.3,4.5,16.7,8.2,24.7c0.7,1.6,1.9,3.2,3.4,4.5c2.2,2.2,6.3,3.2,9.7,2.2c2.2-1,4.8-3.2,3.7-8.3c-0.7-2.9-1.5-5.8-2.6-8.3
		C54.9,73.7,53,67,51.9,60.6c-0.4-7.4,3-8,5.2-8.7c3.7-0.6,6.7,2.9,9.7,7.1c3.4,5.1,9.7,14.4,14.5,21.5c5.2,8,14.9,13.2,25.7,12.8
		c13.4-0.3,23.1-4.8,28.4-18.6c3-9,6.3-17.6,10.4-26c4.8-9,11.2-14.1,16.8-12.5c4.8,1.3,6.3,5.5,6.3,11.9c0,5.5-0.7,11.5-1.1,16
		c-0.4,2.2-0.7,4.5-0.4,6.7c0,3.5,2.6,6.7,6.7,7.7c4.8,0.3,9.3-2.6,10.4-6.7c0.7-1.9,1.1-3.8,1.5-5.8c1.5-7.7,1.9-15.7,1.1-23.7
		c-0.7-9.9-3-19.6-7.5-28.6c-4.1-8-10.4-13.2-18.7-13.5c-9.3-0.6-19.8,4.8-25.4,14.8c-5.2,9.3-9.3,18.9-11.6,23.7
		c-1.9,4.5-6.3,8-11.9,8.7c-7.1,0.6-13.1-3.8-17.2-9.9c-4.5-6.7-9.3-13.2-15.3-18.9C76.5,13.4,70.2,10.2,63.1,10.5L63.1,10.5z"/>
</g>
</svg>
