<?xml version="1.0" encoding="utf-8"?>
<!-- Generator: Adobe Illustrator 24.0.0, SVG Export Plug-In . SVG Version: 6.00 Build 0)  -->
<svg version="1.1"
	 id="svg2" xmlns:cc="http://creativecommons.org/ns#" xmlns:dc="http://purl.org/dc/elements/1.1/" xmlns:inkscape="http://www.inkscape.org/namespaces/inkscape" xmlns:rdf="http://www.w3.org/1999/02/22-rdf-syntax-ns#" xmlns:sodipodi="http://sodipodi.sourceforge.net/DTD/sodipodi-0.dtd" xmlns:svg="http://www.w3.org/2000/svg"
	 xmlns="http://www.w3.org/2000/svg" xmlns:xlink="http://www.w3.org/1999/xlink" x="0px" y="0px" viewBox="0 0 1059.8 1060"
	 style="enable-background:new 0 0 1059.8 1060;" xml:space="preserve">
<style type="text/css">
	.st0{fill-rule:evenodd;clip-rule:evenodd;fill:#F9F9F9;}
</style>
<sodipodi:namedview  bordercolor="#666666" borderopacity="1" gridtolerance="10" guidetolerance="10" id="namedview4" inkscape:pageopacity="0" inkscape:pageshadow="2" inkscape:window-height="480" inkscape:window-width="640" objecttolerance="10" pagecolor="#ffffff">
	</sodipodi:namedview>
<g id="g10" transform="matrix(1.3333333,0,0,-1.3333333,0,1060)" inkscape:groupmode="layer" inkscape:label="ink_ext_XXXXXX">
	<g id="g12" transform="scale(0.1)">
		<path id="path16" class="st0" d="M4380.9,1599.6c-132-22.4-264.6-34.4-334.5-32.9c-513.9,1.5-932.9,116.6-1318.2,349.8
			c-49.3,29.9-92.3,37.4-149.9,22.4c-259-71.7-519.9-136-779.3-204.8c-54.6-16.5-59.8-4.5-45.9,44.9
			c68.7,246.6,133.4,491.8,204.4,735.5c19.8,68.7,12.7,121.1-26.6,182.4c-533,856.6-510.5,1923.9,86,2716.3
			c619.7,825.2,1462.1,1163,2470.1,947.8c993.4-209.3,1626.5-850.6,1859.3-1838.8C6664.4,3170.8,5747.2,1826.8,4380.9,1599.6z
			 M6824,4661.3c-321.1,1332-1466.9,2240.5-2852,2256.2c-182.4-3-373.4-17.9-562.1-57.6C1477.7,6468.6,476.4,4326.4,1418.3,2596.7
			c24.3-46.3,26.2-83.7,12.7-131.6c-125.2-456-249.3-911.9-374.1-1366.3c-20.2-74.8-20.2-74.8,54.6-55.3
			c472.8,124.1,944.8,246.7,1417.2,372.2c39.2,10.5,69.9,6,105.7-11.9c608.5-310.9,1249.5-402.2,1920.7-272.1
			C6158.7,1442.6,7206.7,3073.6,6824,4661.3"/>
		<path id="path18" class="st0" d="M4736.6,2593.7c-104.2-4.5-203.7,19.5-303.5,46.4c-670.8,192.8-1174.2,612.9-1578.7,1166
			c-152.9,207.8-294.4,423-341.5,681.7c-56.5,311,32.8,574.1,264.2,789.4c73.6,67.3,297.8,97.1,387.5,53.8
			c33.3-16.5,54.6-46.4,68.4-77.8c84.8-201.8,168.6-400.6,251.5-602.4c15.7-38.9,9-76.2-8.6-115.1
			c-42.6-92.7-111.1-167.4-180.6-240.6c-52.7-53.9-55-103.2-16.1-167.5c237-394.7,564.7-681.7,993.4-853.6
			c63.9-25.4,112.1-16.5,154.7,37.4c71.4,88.2,146.9,176.4,214.5,267.6c46.3,64.3,99.4,73.2,164.8,43.4
			c141.7-64.3,283.3-131.6,425-198.9c31.8-13.5,63.2-29.9,94.5-44.8c143.5-71.8,142.1-73.3,129.7-231.7
			c-24-309.5-256-462-531.1-538.2C4864.5,2592.3,4800.2,2590.7,4736.6,2593.7"/>
	</g>
</g>
</svg>
